<?xml version="1.0" standalone="no"?><!DOCTYPE svg PUBLIC "-//W3C//DTD SVG 1.1//EN" "http://www.w3.org/Graphics/SVG/1.1/DTD/svg11.dtd"><svg t="1764568149035" class="icon" viewBox="0 0 1024 1024" version="1.1" xmlns="http://www.w3.org/2000/svg" p-id="9342" xmlns:xlink="http://www.w3.org/1999/xlink" width="16" height="16"><path d="M0.000569 95.118222C0.000569 73.841778 16.83968 56.888889 37.661013 56.888889h948.508445c20.764444 0 37.660444 17.066667 37.660444 38.229333a37.831111 37.831111 0 0 1-37.660444 38.229334H37.661013A38.001778 38.001778 0 0 1 0.000569 95.118222z m284.444444 258.844445c0-21.333333 16.839111-38.286222 37.660445-38.286223h664.007111c20.878222 0 37.717333 17.066667 37.717333 38.229334a37.888 37.888 0 0 1-37.717333 38.229333H322.105458A37.944889 37.944889 0 0 1 284.445013 353.905778z m0 258.730666c0-21.276444 16.839111-38.172444 37.660445-38.172444h664.007111c20.878222 0 37.717333 17.066667 37.717333 38.172444a37.888 37.888 0 0 1-37.717333 38.229334H322.105458A37.944889 37.944889 0 0 1 284.445013 612.693333z m-284.444444 259.299556c0-21.219556 16.839111-38.115556 37.660444-38.115556h948.508445c20.764444 0 37.660444 17.066667 37.660444 38.115556 0 21.219556-16.839111 38.115556-37.660444 38.115555H37.661013a37.944889 37.944889 0 0 1-37.660444-38.115555z m46.990222-259.185778l139.832889-113.550222c24.462222-19.911111 23.722667-51.484444-1.137778-71.111111L48.014791 319.829333C23.325013 300.373333 3.129458 309.873778 3.129458 341.333333v250.311111c0 31.857778 19.683556 40.96 43.918222 21.219556z" fill="#000000" p-id="9343"></path></svg>